<?xml version="1.0" encoding="iso-8859-1"?>
<!-- Generator: Adobe Illustrator 19.0.0, SVG Export Plug-In . SVG Version: 6.00 Build 0)  -->
<svg version="1.1" id="Capa_1" xmlns="http://www.w3.org/2000/svg" xmlns:xlink="http://www.w3.org/1999/xlink" x="0px" y="0px"
	 viewBox="0 0 115.572 115.572" style="enable-background:new 0 0 115.572 115.572;" xml:space="preserve">
<g>
	<g>
		<g>
			<path style="fill-rule:evenodd;clip-rule:evenodd;fill:#E7831E;" d="M70.191,114.09c0,0.818-0.664,1.482-1.483,1.482l0,0
				c-0.818,0-1.482-0.664-1.482-1.482v-9.222c0-0.819,0.664-1.483,1.482-1.483l0,0c0.819,0,1.483,0.664,1.483,1.483V114.09z"/>
			<path style="fill-rule:evenodd;clip-rule:evenodd;fill:#E7831E;" d="M76.489,110.034c0.601,0.555,0.64,1.492,0.084,2.095l0,0
				c-0.555,0.602-1.494,0.639-2.095,0.083l-6.775-6.256c-0.603-0.555-0.64-1.493-0.084-2.095l0,0
				c0.555-0.602,1.493-0.639,2.095-0.083L76.489,110.034z"/>
			<path style="fill-rule:evenodd;clip-rule:evenodd;fill:#E7831E;" d="M60.926,110.034c-0.602,0.555-0.64,1.492-0.083,2.095l0,0
				c0.555,0.602,1.493,0.639,2.095,0.083l6.775-6.256c0.602-0.555,0.64-1.493,0.084-2.095l0,0c-0.556-0.602-1.493-0.639-2.095-0.083
				L60.926,110.034z"/>
		</g>
		<g>
			<path style="fill-rule:evenodd;clip-rule:evenodd;fill:#E7831E;" d="M48.557,114.09c0,0.818-0.663,1.482-1.483,1.482l0,0
				c-0.818,0-1.482-0.664-1.482-1.482v-9.222c0-0.819,0.664-1.483,1.482-1.483l0,0c0.82,0,1.483,0.664,1.483,1.483V114.09z"/>
			<path style="fill-rule:evenodd;clip-rule:evenodd;fill:#E7831E;" d="M54.856,110.034c0.601,0.555,0.64,1.492,0.083,2.095l0,0
				c-0.555,0.602-1.493,0.639-2.095,0.083l-6.775-6.256c-0.603-0.555-0.64-1.493-0.084-2.095l0,0
				c0.556-0.602,1.493-0.639,2.095-0.083L54.856,110.034z"/>
			<path style="fill-rule:evenodd;clip-rule:evenodd;fill:#E7831E;" d="M39.292,110.034c-0.602,0.555-0.639,1.492-0.083,2.095l0,0
				c0.556,0.602,1.493,0.639,2.095,0.083l6.775-6.256c0.603-0.555,0.64-1.493,0.084-2.095l0,0c-0.555-0.602-1.493-0.639-2.095-0.083
				L39.292,110.034z"/>
		</g>
	</g>
	<g>
		<g>
			<path style="fill-rule:evenodd;clip-rule:evenodd;fill:#FDBD2C;" d="M90.383,73.638c0,17.674-14.327,32-32,32H57.19
				c-17.673,0-32-14.326-32-32v-36.25c0-17.674,14.327-32,32-32h1.193c17.673,0,32,14.326,32,32V73.638z"/>
			<path style="fill-rule:evenodd;clip-rule:evenodd;fill:#FDBD2C;" d="M57.19,5.388c0,0,14.515,0.056,17.018-5.388
				c0,0,1.926,2.22,0,5.388c0,0,0.169,1.165,3.17,0c0,0,1.668,0.608-4.667,3.388"/>
			<path style="fill-rule:evenodd;clip-rule:evenodd;fill:#F4C778;" d="M77.643,85.781c0,10.966-8.89,19.856-19.856,19.856l0,0
				c-10.967,0-19.856-8.891-19.856-19.856v-6.476c0-10.967,8.89-19.857,19.856-19.857l0,0c10.967,0,19.856,8.891,19.856,19.857
				V85.781z"/>
		</g>
		<g>
			<path style="fill-rule:evenodd;clip-rule:evenodd;fill:#F2B02A;" d="M82.053,61.017l4.084,14.867
				c0.936,3.41,4.459,5.414,7.869,4.477l0,0c3.408-0.936,5.413-4.459,4.476-7.868c0,0-0.992-4.628-1.66-6.046
				C95.147,62.888,92.129,59.764,82.053,61.017z"/>
			<path style="fill-rule:evenodd;clip-rule:evenodd;fill:#F2B02A;" d="M33.519,61.017l-4.083,14.867
				c-0.937,3.41-4.459,5.414-7.868,4.477l0,0c-3.41-0.936-5.414-4.459-4.478-7.868c0,0,0.994-4.628,1.661-6.046
				C20.426,62.888,23.444,59.764,33.519,61.017z"/>
		</g>
	</g>
	<g>
		<g>
			<g>
				<circle style="fill-rule:evenodd;clip-rule:evenodd;fill:#1A1A1A;" cx="43.294" cy="40.091" r="3.965"/>
				<path style="fill-rule:evenodd;clip-rule:evenodd;fill:#FFFFFF;" d="M43.294,39.327c0-0.828,0.668-1.5,1.496-1.5
					c0.832,0,1.498,0.672,1.498,1.5c0,0.826-0.666,1.498-1.498,1.498C43.962,40.825,43.294,40.153,43.294,39.327z"/>
			</g>
			<g>
				<circle style="fill-rule:evenodd;clip-rule:evenodd;fill:#1A1A1A;" cx="72.278" cy="40.091" r="3.964"/>
				<path style="fill-rule:evenodd;clip-rule:evenodd;fill:#FFFFFF;" d="M72.279,39.327c0-0.828,0.668-1.5,1.496-1.5
					c0.832,0,1.497,0.672,1.497,1.5c0,0.826-0.665,1.498-1.497,1.498C72.947,40.825,72.279,40.153,72.279,39.327z"/>
			</g>
		</g>
		<polygon style="fill-rule:evenodd;clip-rule:evenodd;fill:#E7831E;" points="57.786,57.386 54.005,50.837 50.224,44.288 
			57.786,44.288 65.349,44.288 61.568,50.837 		"/>
	</g>
</g>
<g>
</g>
<g>
</g>
<g>
</g>
<g>
</g>
<g>
</g>
<g>
</g>
<g>
</g>
<g>
</g>
<g>
</g>
<g>
</g>
<g>
</g>
<g>
</g>
<g>
</g>
<g>
</g>
<g>
</g>
</svg>
