<?xml version="1.0" encoding="iso-8859-1"?>
<!-- Generator: Adobe Illustrator 19.0.0, SVG Export Plug-In . SVG Version: 6.00 Build 0)  -->
<svg version="1.1" id="Capa_1" xmlns="http://www.w3.org/2000/svg" xmlns:xlink="http://www.w3.org/1999/xlink" x="0px" y="0px"
	 viewBox="0 0 110.927 110.927" style="enable-background:new 0 0 110.927 110.927;" xml:space="preserve">
<g>
	<g>
		<path style="fill-rule:evenodd;clip-rule:evenodd;fill:#F68084;" d="M81.869,73.463c0,20.565,0,37.465-37.236,37.235h-0.682
			C6.714,113.254,6.714,94.029,6.714,73.463v-0.607c0-20.564,16.672-37.235,37.236-37.235h0.682
			c20.563,0,37.236,16.67,37.236,37.235V73.463z"/>
		<g>
			<g>
				<g>
					<path style="fill:#F68084;" d="M75.334,92.353c4.51,3.805,11.985,4.545,17.303,2.087c3.139-1.448,10.792-7.838,3.886-9.813
						c-3.745-1.07-7.313,1.399-6.898,5.273c0.58,5.448,6.193,8.135,11.068,7.882c1.736-0.088,5.601-2.866,2.105-2.686
						c-4.256,0.219-8.486-3.479-7.969-7.986c0.035-0.159,0.08-0.316,0.123-0.476c-2.436-0.004-2.711,0.57-0.825,1.725
						c0.619,1.466-2.435,3.529-3.265,4.073c-2.986,1.962-8.184,0.046-10.65-2.038C78.908,89.296,74.091,91.307,75.334,92.353
						L75.334,92.353z"/>
				</g>
			</g>
		</g>
	</g>
	<g>
		<g>
			<path style="fill-rule:evenodd;clip-rule:evenodd;fill:#F6A3A5;" d="M58.057,18.108c0,0,2.225-11.84,14.466-17.51
				c0,0,6.578,10.972,2.889,23.519"/>
			<path style="fill-rule:evenodd;clip-rule:evenodd;fill:#F68084;" d="M59.375,20.656c0,0,1.724-9.178,11.213-13.573
				c0,0,5.1,8.505,2.239,18.232"/>
		</g>
		<g>
			<path style="fill-rule:evenodd;clip-rule:evenodd;fill:#F6A3A5;" d="M30.885,17.51c0,0-2.225-11.84-14.466-17.51
				c0,0-6.578,10.972-2.889,23.519"/>
			<path style="fill-rule:evenodd;clip-rule:evenodd;fill:#F68084;" d="M29.567,20.057c0,0-1.724-9.178-11.213-13.573
				c0,0-5.1,8.505-2.239,18.231"/>
		</g>
	</g>
	<g>
		<defs>
			<path id="XMLID_11_" d="M6.966,42.382c0-18.68,16.711-33.822,37.325-33.822c20.615,0,37.325,15.142,37.325,33.822
				c0,18.679-9.247,33.822-37.325,33.822C14.315,76.204,6.966,61.062,6.966,42.382z"/>
		</defs>
		<use xlink:href="#XMLID_11_"  style="overflow:visible;fill-rule:evenodd;clip-rule:evenodd;fill:#F6A3A5;"/>
		<clipPath id="XMLID_13_">
			<use xlink:href="#XMLID_11_"  style="overflow:visible;"/>
		</clipPath>
	</g>
	<g>
		<g>
			<g>
				<circle style="fill-rule:evenodd;clip-rule:evenodd;fill:#434849;" cx="26.237" cy="38.385" r="3.832"/>
				<circle style="fill-rule:evenodd;clip-rule:evenodd;fill:#FFFFFF;" cx="27.685" cy="37.646" r="1.447"/>
			</g>
			<g>
				<circle style="fill-rule:evenodd;clip-rule:evenodd;fill:#434849;" cx="61.889" cy="37.675" r="3.832"/>
				<circle style="fill-rule:evenodd;clip-rule:evenodd;fill:#FFFFFF;" cx="63.337" cy="36.936" r="1.447"/>
			</g>
		</g>
		<g>
			<circle style="fill-rule:evenodd;clip-rule:evenodd;fill:#F68084;" cx="44.292" cy="51.733" r="13.037"/>
			<g>
				<circle style="fill-rule:evenodd;clip-rule:evenodd;fill:#DB6971;" cx="38.541" cy="51.733" r="1.663"/>
				<circle style="fill-rule:evenodd;clip-rule:evenodd;fill:#DB6971;" cx="50.041" cy="51.733" r="1.663"/>
			</g>
		</g>
	</g>
</g>
<g>
</g>
<g>
</g>
<g>
</g>
<g>
</g>
<g>
</g>
<g>
</g>
<g>
</g>
<g>
</g>
<g>
</g>
<g>
</g>
<g>
</g>
<g>
</g>
<g>
</g>
<g>
</g>
<g>
</g>
</svg>
