<?xml version="1.0" encoding="iso-8859-1"?>
<!-- Generator: Adobe Illustrator 19.0.0, SVG Export Plug-In . SVG Version: 6.00 Build 0)  -->
<svg version="1.1" id="Capa_1" xmlns="http://www.w3.org/2000/svg" xmlns:xlink="http://www.w3.org/1999/xlink" x="0px" y="0px"
	 viewBox="0 0 125.397 125.397" style="enable-background:new 0 0 125.397 125.397;" xml:space="preserve">
<g>
	<g>
		<path style="fill-rule:evenodd;clip-rule:evenodd;fill:#775236;" d="M96.793,85.864c0,21.701,0,39.536-39.294,39.292H56.78
			c-39.295,2.696-39.295-17.591-39.295-39.292v-0.641c0-21.7,17.593-39.292,39.295-39.292h0.719c21.7,0,39.294,17.592,39.294,39.292
			V85.864z"/>
		<g>
			<g>
				<g>
					<path style="fill:#5E3B28;" d="M113.019,78.763c-1.116,1.425-4.337,5.587-2.872,11.961c0.646,2.809,1.379,4.486,1.945,5.748
						c0.59,1.261,2.187,3.708,3.563,4.896c1.122-1.427,1.491-1.618,2.659-3.507c0.724-1.18,1.377-3.024,1.249-4.33
						c-0.128-1.305-0.297-2.707-1.275-4.609C117.695,87.658,112.986,82.173,113.019,78.763z"/>
				</g>
			</g>
			<g>
				<g>
					<g>
						<path style="fill:#775236;" d="M117.101,100.494c0.183-0.729,0.31-1.502,0.378-2.318c0.133-1.613-1.064-3.029-2.678-3.163
							c-1.612-0.132-3.026,1.064-3.162,2.678c-0.799,9.549-17.274,9.253-17.442,9.248c-1.618-0.037-2.962,1.239-2.998,2.859
							c-0.039,1.618,1.241,2.961,2.858,3C94.913,112.817,113.972,113.119,117.101,100.494z"/>
					</g>
				</g>
			</g>
		</g>
	</g>
	<g>
		<g>
			<path style="fill:#333333;" d="M64.859,16.403c0,0,12.515-6.202,15.297-16.403c0,0,5.062,15.065-2.028,24.875
				C78.127,24.875,73.231,17.838,64.859,16.403z"/>
			<path style="fill:#333333;" d="M48.577,16.403c0,0-12.515-6.202-15.297-16.403c0,0-5.062,15.065,2.028,24.875
				C35.308,24.875,40.205,17.838,48.577,16.403z"/>
		</g>
		<g>
			<g>
				<defs>
					<path id="XMLID_4_" d="M23.332,49.42c0-20.292,17.052-35.008,33.576-35.008c15.861,0,32.139,13.787,34.291,33.96
						c2.142,20.101-5.533,42.776-34.06,42.776C24.221,91.147,23.332,69.713,23.332,49.42z"/>
				</defs>
				<use xlink:href="#XMLID_4_"  style="overflow:visible;fill-rule:evenodd;clip-rule:evenodd;fill:#856040;"/>
				<clipPath id="XMLID_6_">
					<use xlink:href="#XMLID_4_"  style="overflow:visible;"/>
				</clipPath>
			</g>
			<g>
				<g>
					<path style="fill:#775236;" d="M63.231,49.596c-0.54-18.882,14.565-25.756,15.707-26.468c4.654,3.938,5.546,5.179,8.393,10.114
						c0.685,1.186,1.959,6.827,1.977,6.964c0,0,1.212-1.939,1.89,3.847c0.646,5.51,1.107,10.228,0,16.646
						C90.925,60.802,63.794,69.312,63.231,49.596z"/>
				</g>
			</g>
			<path style="fill-rule:evenodd;clip-rule:evenodd;fill:#5E3B28;" d="M85.666,75.094c0,8.866-15.549,16.772-25.302,16.772h-8.529
				c-9.755,0-23.684-7.906-23.684-16.772l0,0c0-8.867,7.908-16.054,17.663-16.054h22.19C77.757,59.04,85.666,66.227,85.666,75.094
				L85.666,75.094z"/>
		</g>
		<g>
			<g>
				<g>
					<g>
						<path style="fill:#856040;" d="M78.938,23.128c0,0,21.667-2.51,24.791,9.241c3.125,11.753,4.172,15.697,4.172,15.697
							s-22.295,0.147-25.418-11.604C79.361,24.713,78.938,23.128,78.938,23.128z"/>
					</g>
				</g>
				<g>
					<g>
						<path style="fill:#E49788;" d="M84.071,27.546c0,0,13.99-1.618,16.005,5.966c2.017,7.586,2.694,10.133,2.694,10.133
							s-14.394,0.096-16.411-7.49C84.342,28.569,84.071,27.546,84.071,27.546z"/>
					</g>
				</g>
			</g>
			<g>
				<g>
					<g>
						<path style="fill:#856040;" d="M34.782,23.686c0,0-21.667-2.51-24.792,9.241C6.867,44.68,5.819,48.623,5.819,48.623
							S28.113,48.77,31.237,37.02C34.36,25.271,34.782,23.686,34.782,23.686z"/>
					</g>
				</g>
				<g>
					<g>
						<path style="fill:#E49788;" d="M29.65,28.104c0,0-13.99-1.619-16.005,5.965c-2.017,7.586-2.694,10.134-2.694,10.134
							s14.394,0.095,16.411-7.491C29.379,29.127,29.65,28.104,29.65,28.104z"/>
					</g>
				</g>
			</g>
		</g>
		<g>
			<g>
				<g>
					<circle style="fill-rule:evenodd;clip-rule:evenodd;fill:#1A1A1A;" cx="41.142" cy="48.846" r="4.044"/>
					<path style="fill-rule:evenodd;clip-rule:evenodd;fill:#FFFFFF;" d="M41.142,48.066c0-0.845,0.681-1.53,1.526-1.53
						c0.848,0,1.527,0.685,1.527,1.53c0,0.844-0.68,1.529-1.527,1.529C41.823,49.596,41.142,48.911,41.142,48.066z"/>
				</g>
				<g>
					<circle style="fill-rule:evenodd;clip-rule:evenodd;fill:#1A1A1A;" cx="71.856" cy="48.098" r="4.044"/>
					<path style="fill-rule:evenodd;clip-rule:evenodd;fill:#FFFFFF;" d="M71.856,47.316c0-0.843,0.681-1.529,1.526-1.529
						c0.847,0,1.527,0.687,1.527,1.529c0,0.845-0.68,1.53-1.527,1.53C72.537,48.847,71.856,48.161,71.856,47.316z"/>
				</g>
			</g>
			<g>
				<g>
					<circle style="fill-rule:evenodd;clip-rule:evenodd;fill:#1A1A1A;" cx="49.217" cy="66.426" r="2.41"/>
					<circle style="fill-rule:evenodd;clip-rule:evenodd;fill:#1A1A1A;" cx="64.599" cy="66.426" r="2.41"/>
				</g>
				<g>
					<path style="fill:#BDBCBC;" d="M56.908,74.867c-4.655,0-8.441-3.787-8.441-8.441c0-0.414,0.336-0.75,0.75-0.75
						c0.414,0,0.75,0.336,0.75,0.75c0,3.827,3.114,6.941,6.941,6.941c3.828,0,6.942-3.114,6.942-6.941c0-0.414,0.336-0.75,0.75-0.75
						c0.414,0,0.75,0.336,0.75,0.75C65.35,71.081,61.563,74.867,56.908,74.867z"/>
				</g>
			</g>
		</g>
	</g>
</g>
<g>
</g>
<g>
</g>
<g>
</g>
<g>
</g>
<g>
</g>
<g>
</g>
<g>
</g>
<g>
</g>
<g>
</g>
<g>
</g>
<g>
</g>
<g>
</g>
<g>
</g>
<g>
</g>
<g>
</g>
</svg>
