<?xml version="1.0" encoding="iso-8859-1"?>
<!-- Generator: Adobe Illustrator 19.0.0, SVG Export Plug-In . SVG Version: 6.00 Build 0)  -->
<svg version="1.1" id="Capa_1" xmlns="http://www.w3.org/2000/svg" xmlns:xlink="http://www.w3.org/1999/xlink" x="0px" y="0px"
	 viewBox="0 0 121.101 121.101" style="enable-background:new 0 0 121.101 121.101;" xml:space="preserve">
<g>
	<g>
		<g>
			<g>
				<g>
					<path style="fill:#D45136;" d="M63.298,84.602c9.878,8.14,22.859,2.689,30.54-5.806c0.601-0.664,1.281-1.26,1.999-1.828
						c3.252-0.153,6.785,0.214,9.682,1.828c0,0-5.193,3.922-7.167,8.226c0,0,5.823,1.186,10.396-1.694c0,0-0.574,6.88-5.447,12.828
						c-1.525,0.467-3.165,0.883-4.948,1.236c-30.029,5.917-38.67-11.149-38.67-11.149L63.298,84.602z"/>
				</g>
			</g>
			<g>
				<g>
					<path style="fill:#D8D8D8;" d="M98.352,87.022c1.974-4.304,7.167-8.226,7.167-8.226c-2.897-1.614-6.43-1.981-9.682-1.828
						c8.477-6.694,24.205-6.947,24.205-6.947s7.367,20.744-16.741,28.135c4.874-5.948,5.447-12.828,5.447-12.828
						C104.175,88.208,98.352,87.022,98.352,87.022z"/>
				</g>
			</g>
		</g>
		<path style="fill-rule:evenodd;clip-rule:evenodd;fill:#E76541;" d="M81.692,78.792c0,19.177,0,34.936-34.723,34.722h-0.635
			c-34.722,2.381-34.722-15.545-34.722-34.722v-0.566c0-19.176,15.545-34.721,34.722-34.721h0.635
			c19.176,0,34.723,15.545,34.723,34.721V78.792z"/>
	</g>
	<g>
		<g>
			<g>
				<path style="fill-rule:evenodd;clip-rule:evenodd;fill:#E76541;" d="M65.785,20.027c0,0,9.023-12.653,26.426-12.653
					c0,0,1.751,16.41-9.369,29.097"/>
				<path style="fill-rule:evenodd;clip-rule:evenodd;fill:#E49788;" d="M65.946,23.724c0,0,6.994-9.809,20.485-9.809
					c0,0,1.357,12.721-7.264,22.555"/>
			</g>
			<g>
				<path style="fill-rule:evenodd;clip-rule:evenodd;fill:#E76541;" d="M26.527,20.027c0,0-9.023-12.653-26.427-12.653
					c0,0-1.751,16.41,9.37,29.097"/>
				<path style="fill-rule:evenodd;clip-rule:evenodd;fill:#E49788;" d="M26.366,23.724c0,0-6.994-9.809-20.485-9.809
					c0,0-1.357,12.721,7.264,22.555"/>
			</g>
		</g>
		<g>
			<path style="fill-rule:evenodd;clip-rule:evenodd;fill:#E76541;" d="M46.65,12.98c0,0-36.619,0-45.561,46.228
				c0,0,34.206-6.913,45.562,10.813c9.225-15.88,45.56-10.813,45.56-10.813C83.269,12.98,46.65,12.98,46.65,12.98z"/>
			<path style="fill-rule:evenodd;clip-rule:evenodd;fill:#D8D8D8;" d="M20.929,23.015c0,0,5.352,2.384,13.23,13.881
				c8.368,12.214,6.463,27.1,6.463,27.1s-10.153-7.33-39.533-4.787C1.089,59.208,3.075,36.257,20.929,23.015z"/>
			<path style="fill-rule:evenodd;clip-rule:evenodd;fill:#D8D8D8;" d="M72.558,23.015c0,0-5.353,2.384-13.23,13.881
				c-8.368,12.214-6.464,27.1-6.464,27.1s10.153-7.33,39.534-4.787C92.397,59.208,90.412,36.257,72.558,23.015z"/>
		</g>
		<g>
			<g>
				<g>
					<circle style="fill-rule:evenodd;clip-rule:evenodd;fill:#434849;" cx="65.784" cy="42.24" r="3.832"/>
					<circle style="fill-rule:evenodd;clip-rule:evenodd;fill:#FFFFFF;" cx="67.393" cy="41.501" r="1.447"/>
				</g>
				<g>
					<circle style="fill-rule:evenodd;clip-rule:evenodd;fill:#434849;" cx="27.701" cy="42.24" r="3.832"/>
					<circle style="fill-rule:evenodd;clip-rule:evenodd;fill:#FFFFFF;" cx="29.149" cy="41.501" r="1.447"/>
				</g>
			</g>
			<path style="fill-rule:evenodd;clip-rule:evenodd;fill:#434849;" d="M52.678,63.996c0,3.327-2.698,6.026-6.026,6.026
				c-3.33,0-6.028-2.699-6.028-6.026"/>
		</g>
	</g>
</g>
<g>
</g>
<g>
</g>
<g>
</g>
<g>
</g>
<g>
</g>
<g>
</g>
<g>
</g>
<g>
</g>
<g>
</g>
<g>
</g>
<g>
</g>
<g>
</g>
<g>
</g>
<g>
</g>
<g>
</g>
</svg>
