<?xml version="1.0" encoding="iso-8859-1"?>
<!-- Generator: Adobe Illustrator 19.0.0, SVG Export Plug-In . SVG Version: 6.00 Build 0)  -->
<svg version="1.1" id="Capa_1" xmlns="http://www.w3.org/2000/svg" xmlns:xlink="http://www.w3.org/1999/xlink" x="0px" y="0px"
	 viewBox="0 0 121.566 121.566" style="enable-background:new 0 0 121.566 121.566;" xml:space="preserve">
<g>
	<g>
		<g>
			<g>
				<g>
					<g>
						<circle style="fill:#945328;" cx="98.809" cy="20.075" r="9.647"/>
					</g>
				</g>
				<g>
					<g>
						<path style="fill:#B57651;" d="M104.371,20.075c0,3.073-2.491,5.564-5.561,5.564c-3.073,0-5.563-2.492-5.563-5.564
							c0-3.069,2.489-5.561,5.563-5.561C101.879,14.514,104.371,17.006,104.371,20.075z"/>
					</g>
				</g>
			</g>
		</g>
		<g>
			<g>
				<g>
					<g>
						<circle style="fill:#945328;" cx="21.359" cy="20.075" r="9.647"/>
					</g>
				</g>
				<g>
					<g>
						<path style="fill:#B57651;" d="M26.921,20.075c0,3.073-2.491,5.565-5.562,5.565c-3.072,0-5.563-2.492-5.563-5.565
							c0-3.069,2.49-5.561,5.563-5.561C24.43,14.514,26.921,17.005,26.921,20.075z"/>
					</g>
				</g>
			</g>
		</g>
	</g>
	<polygon style="fill-rule:evenodd;clip-rule:evenodd;fill:#603813;" points="0.809,58.012 5.847,55.999 0.978,53.605 6.156,51.985 
		1.485,49.223 6.773,48.008 2.332,44.893 7.699,44.093 3.513,40.642 8.925,40.265 5.023,36.498 10.449,36.542 6.85,32.48 
		12.255,32.947 8.981,28.621 14.335,29.5 11.4,24.937 16.671,26.222 14.092,21.449 19.252,23.128 17.04,18.174 22.057,20.237 
		20.221,15.132 25.074,17.562 23.621,12.335 28.279,15.119 27.217,9.798 31.657,12.917 30.991,7.533 35.189,10.971 34.919,5.551 
		38.854,9.287 38.981,3.863 42.631,7.876 43.153,2.475 46.505,6.741 47.415,1.393 50.451,5.89 51.742,0.62 54.451,5.322 
		56.112,0.156 58.484,5.037 60.502,0 62.49,5.04 64.878,0.177 66.453,5.361 69.216,0.702 70.386,5.992 73.493,1.554 74.268,6.916 
		77.69,2.715 78.084,8.119 81.79,4.167 81.809,9.584 85.774,5.892 85.432,11.299 89.634,7.88 88.934,13.252 93.353,10.117 
		92.301,15.432 96.916,12.593 95.517,17.828 100.31,15.301 98.566,20.431 103.517,18.229 101.43,23.23 106.52,21.374 
		104.091,26.216 109.299,24.724 106.531,29.381 111.834,28.271 108.725,32.708 114.098,32.003 110.659,36.188 116.069,35.906 
		112.308,39.806 117.722,39.96 113.654,43.537 119.036,44.147 114.677,47.362 119.988,48.431 115.367,51.259 120.564,52.786 
		115.712,55.198 120.756,57.178 115.718,59.225 120.59,61.638 115.414,63.305 120.09,66.078 114.802,67.347 119.255,70.467 
		113.886,71.331 118.087,74.782 112.669,75.229 116.593,78.994 111.156,79.026 114.78,83.08 109.357,82.693 112.659,87.013 
		107.281,86.211 110.241,90.772 104.94,89.561 107.543,94.335 102.351,92.719 104.58,97.678 99.526,95.67 101.368,100.787 
		96.484,98.397 97.929,103.639 93.242,100.884 94.284,106.22 89.819,103.117 90.453,108.517 86.237,105.085 86.462,110.518 
		82.514,106.778 82.334,112.213 78.674,108.191 78.094,113.597 74.738,109.319 73.767,114.669 70.728,110.16 69.378,115.427 
		66.662,110.716 64.951,115.877 62.562,110.991 60.504,116.025 58.465,110.993 56.109,115.885 54.403,110.731 51.728,115.456 
		50.37,110.2 47.38,114.731 46.391,109.393 43.089,113.703 42.485,108.308 38.88,112.369 38.671,106.943 34.778,110.727 
		34.973,105.302 30.806,108.781 31.412,103.386 26.993,106.538 28.01,101.205 23.36,104.006 24.789,98.769 19.935,101.2 
		21.768,96.091 16.739,98.134 18.967,93.183 13.793,94.825 16.403,90.065 11.116,91.296 14.093,86.757 8.726,87.57 12.048,83.276 
		6.634,83.666 10.283,79.646 4.854,79.614 8.803,75.889 3.394,75.438 7.619,72.028 2.258,71.163 6.729,68.081 1.45,66.817 
		6.139,64.079 0.968,62.426 5.845,60.04 	"/>
	<path style="fill-rule:evenodd;clip-rule:evenodd;fill:#945328;" d="M32.358,109.212c-6.759-5.672-8.203-19.682-8.279-34.185
		c-0.084-16.28,2.065-33.181,10.322-39.61c15.612-12.155,27.072,3.038,27.072,3.038s11.461-15.193,27.073-3.038
		c8.702,6.776,10.362,23.454,10.259,39.61c-0.083,12.826-0.46,25.323-5.12,32.273C89.481,113.568,56.985,129.879,32.358,109.212z"/>
	<g>
		<g>
			<path style="fill-rule:evenodd;clip-rule:evenodd;fill:#824420;" d="M77.075,101.08c-4.649,4.76-6.997,13.617-2.639,17.872
				c4.354,4.257,13.768,2.299,18.416-2.461c4.65-4.76,7.018-9.131,0.53-16.325C87.883,94.072,81.724,96.319,77.075,101.08z"/>
			<path style="fill-rule:evenodd;clip-rule:evenodd;fill:#75391B;" d="M76.141,102.126c-4.203,4.304-6.018,12.616-1.66,16.871
				c4.357,4.255,13.234,2.845,17.438-1.458c4.204-4.303,6.25-8.348-0.276-15.498C86.109,95.98,80.346,97.823,76.141,102.126z"/>
		</g>
		<g>
			<path style="fill-rule:evenodd;clip-rule:evenodd;fill:#824420;" d="M46.059,101.08c4.65,4.76,6.997,13.617,2.64,17.872
				c-4.355,4.257-13.768,2.299-18.417-2.461c-4.65-4.76-7.018-9.131-0.529-16.325C35.25,94.072,41.41,96.319,46.059,101.08z"/>
			<path style="fill-rule:evenodd;clip-rule:evenodd;fill:#75391B;" d="M46.993,102.126c4.204,4.304,6.017,12.616,1.66,16.871
				c-4.356,4.255-13.234,2.845-17.438-1.458c-4.204-4.303-6.25-8.348,0.276-15.498C37.025,95.98,42.787,97.823,46.993,102.126z"/>
		</g>
	</g>
	<g>
		<g>
			<g>
				<circle style="fill-rule:evenodd;clip-rule:evenodd;fill:#1A1A1A;" cx="45.926" cy="55.094" r="3.521"/>
				<path style="fill-rule:evenodd;clip-rule:evenodd;fill:#FFFFFF;" d="M45.926,54.415c0-0.735,0.592-1.333,1.329-1.333
					c0.736,0,1.33,0.598,1.33,1.333c0,0.735-0.594,1.332-1.33,1.332C46.518,55.747,45.926,55.15,45.926,54.415z"/>
			</g>
			<g>
				<circle style="fill-rule:evenodd;clip-rule:evenodd;fill:#1A1A1A;" cx="74.412" cy="55.094" r="3.521"/>
				<path style="fill-rule:evenodd;clip-rule:evenodd;fill:#FFFFFF;" d="M74.413,54.415c0-0.735,0.592-1.333,1.328-1.333
					c0.737,0,1.33,0.598,1.33,1.333c0,0.735-0.593,1.332-1.33,1.332C75.004,55.747,74.413,55.15,74.413,54.415z"/>
			</g>
		</g>
		<g>
			<path style="fill-rule:evenodd;clip-rule:evenodd;fill:#A35E37;" d="M66.406,51.573c-4.092,3.388-2.25,16.624-2.25,16.624h-6.747
				c0,0,1.081-13.236-3.011-16.624H66.406z"/>
			<circle style="fill-rule:evenodd;clip-rule:evenodd;fill:#1A1A1A;" cx="60.782" cy="71.802" r="4.942"/>
		</g>
	</g>
</g>
<g>
</g>
<g>
</g>
<g>
</g>
<g>
</g>
<g>
</g>
<g>
</g>
<g>
</g>
<g>
</g>
<g>
</g>
<g>
</g>
<g>
</g>
<g>
</g>
<g>
</g>
<g>
</g>
<g>
</g>
</svg>
