<?xml version="1.0" encoding="iso-8859-1"?>
<!-- Generator: Adobe Illustrator 19.0.0, SVG Export Plug-In . SVG Version: 6.00 Build 0)  -->
<svg version="1.1" id="Capa_1" xmlns="http://www.w3.org/2000/svg" xmlns:xlink="http://www.w3.org/1999/xlink" x="0px" y="0px"
	 viewBox="0 0 115.277 115.277" style="enable-background:new 0 0 115.277 115.277;" xml:space="preserve">
<g>
	<g>
		<path style="fill-rule:evenodd;clip-rule:evenodd;fill:#898179;" d="M101.616,72.315c0,19.176,0,34.936-42.545,34.722h-0.777
			c-42.543,2.382-42.543-15.546-42.543-34.722v-0.566c0-19.176,19.047-34.721,42.543-34.721h0.777
			c23.496,0,42.545,15.545,42.545,34.721V72.315z"/>
		<g>
			<g>
				<path style="fill-rule:evenodd;clip-rule:evenodd;fill:#938B82;" d="M75.256,89.267c-4.614,7.734-4.903,20.135,2.177,24.357
					c7.079,4.226,18.849-1.328,23.463-9.061c4.614-7.736,6.349-14.238-4.465-21.654C87.267,76.626,79.871,81.532,75.256,89.267z"/>
				<path style="fill-rule:evenodd;clip-rule:evenodd;fill:#7A7169;" d="M74.359,90.94c-4.172,6.994-3.931,18.506,3.148,22.729
					c7.08,4.224,18.319-0.439,22.491-7.434c4.173-6.992,5.588-12.963-5.265-20.311C85.534,79.698,78.532,83.946,74.359,90.94z"/>
			</g>
			<g>
				<path style="fill-rule:evenodd;clip-rule:evenodd;fill:#938B82;" d="M40.021,89.267c4.613,7.734,4.902,20.135-2.178,24.357
					c-7.078,4.226-18.848-1.328-23.463-9.061c-4.613-7.736-6.348-14.238,4.465-21.654C28.009,76.626,35.406,81.532,40.021,89.267z"
					/>
				<path style="fill-rule:evenodd;clip-rule:evenodd;fill:#7A7169;" d="M40.917,90.94c4.172,6.994,3.932,18.506-3.148,22.729
					c-7.08,4.224-18.318-0.439-22.49-7.434c-4.174-6.992-5.588-12.963,5.264-20.311C29.741,79.698,36.743,83.946,40.917,90.94z"/>
			</g>
		</g>
	</g>
	<g>
		<g>
			<g>
				<g>
					<g>
						<g>
							<circle style="fill:#938B82;" cx="85.044" cy="10.69" r="7.5"/>
						</g>
					</g>
					<g>
						<g>
							<circle style="fill:#595048;" cx="85.044" cy="10.69" r="4.324"/>
						</g>
					</g>
				</g>
			</g>
			<g>
				<g>
					<g>
						<g>
							<circle style="fill:#938B82;" cx="31.544" cy="10.69" r="7.5"/>
						</g>
					</g>
					<g>
						<g>
							<circle style="fill:#595048;" cx="31.544" cy="10.69" r="4.324"/>
						</g>
					</g>
				</g>
			</g>
		</g>
		<ellipse style="fill-rule:evenodd;clip-rule:evenodd;fill:#938B82;" cx="57.857" cy="34.229" rx="36.777" ry="34.229"/>
		<g>
			<g>
				<g>
					<circle style="fill-rule:evenodd;clip-rule:evenodd;fill:#434849;" cx="42.107" cy="27.702" r="4.074"/>
					<path style="fill-rule:evenodd;clip-rule:evenodd;fill:#FFFFFF;" d="M42.279,26.917c0-0.851,0.686-1.541,1.537-1.541
						c0.853,0,1.539,0.69,1.539,1.541s-0.686,1.541-1.539,1.541C42.964,28.458,42.279,27.768,42.279,26.917z"/>
				</g>
				<g>
					<circle style="fill-rule:evenodd;clip-rule:evenodd;fill:#434849;" cx="73.609" cy="27.702" r="4.074"/>
					<path style="fill-rule:evenodd;clip-rule:evenodd;fill:#FFFFFF;" d="M73.779,26.917c0-0.851,0.687-1.541,1.539-1.541
						c0.854,0,1.539,0.69,1.539,1.541s-0.686,1.541-1.539,1.541C74.466,28.458,73.779,27.768,73.779,26.917z"/>
				</g>
			</g>
			<g>
				<path style="fill-rule:evenodd;clip-rule:evenodd;fill:#B7B1AB;" d="M92.544,52.876c0,10.64-9.989,19.264-22.311,19.264H47.428
					c-12.321,0-22.309-8.624-22.309-19.264l0,0c0-10.639,9.988-19.264,22.309-19.264h22.806
					C82.555,33.612,92.544,42.237,92.544,52.876L92.544,52.876z"/>
				<path style="fill-rule:evenodd;clip-rule:evenodd;fill:#AFA7A0;" d="M25.445,56.146c0,0,33.953,12.079,66.937-0.952
					c0,0,0.402,14.405-20.264,16.945H43.661C43.661,72.14,27.532,69.15,25.445,56.146z"/>
				<g>
					<circle style="fill-rule:evenodd;clip-rule:evenodd;fill:#595048;" cx="49.057" cy="44.903" r="2.981"/>
					<circle style="fill-rule:evenodd;clip-rule:evenodd;fill:#595048;" cx="66.657" cy="44.903" r="2.981"/>
					<path style="fill:#A3A3A3;" d="M70.275,43.255c0,0,0.111,0.139,0.306,0.381c0.107,0.114,0.188,0.284,0.28,0.491
						c0.046,0.104,0.096,0.214,0.148,0.33c0.024,0.123,0.051,0.252,0.078,0.387c0.077,0.271,0.053,0.57,0.053,0.891
						c-0.028,0.313-0.086,0.655-0.208,0.98c-0.13,0.325-0.272,0.66-0.503,0.951c-0.186,0.323-0.494,0.551-0.747,0.825
						c-0.346,0.214-0.56,0.426-0.942,0.566c-0.344,0.178-0.701,0.251-1.044,0.314c-0.343,0.056-0.689,0.046-1.003,0.013
						c-0.313-0.063-0.612-0.099-0.863-0.227c-0.127-0.054-0.248-0.104-0.363-0.153c-0.102-0.072-0.199-0.142-0.291-0.207
						c-0.182-0.127-0.334-0.241-0.43-0.372c-0.2-0.238-0.314-0.375-0.314-0.375s0.138,0.11,0.379,0.303
						c0.108,0.109,0.273,0.194,0.463,0.286c0.094,0.046,0.191,0.096,0.297,0.149c0.111,0.032,0.228,0.067,0.352,0.104
						c0.236,0.097,0.517,0.099,0.802,0.129c0.286,0.002,0.593-0.023,0.896-0.082c0.151-0.04,0.305-0.08,0.461-0.121
						c0.151-0.046,0.285-0.129,0.434-0.187c0.283-0.085,0.597-0.371,0.851-0.525c0.225-0.243,0.509-0.437,0.674-0.724
						c0.209-0.255,0.355-0.54,0.484-0.826c0.117-0.286,0.203-0.582,0.257-0.863c0.025-0.285,0.078-0.561,0.029-0.813
						c-0.011-0.127-0.022-0.249-0.032-0.365c-0.031-0.11-0.06-0.215-0.086-0.313c-0.051-0.201-0.103-0.382-0.191-0.513
						C70.357,43.412,70.275,43.255,70.275,43.255z"/>
					<path style="fill:#A3A3A3;" d="M45.622,43.255c0,0-0.081,0.157-0.224,0.434c-0.089,0.131-0.141,0.312-0.19,0.513
						c-0.027,0.099-0.057,0.203-0.086,0.313c-0.012,0.116-0.021,0.238-0.033,0.365c-0.049,0.252,0.004,0.527,0.029,0.813
						c0.053,0.281,0.14,0.577,0.257,0.863c0.128,0.286,0.276,0.571,0.484,0.826c0.165,0.287,0.449,0.48,0.674,0.724
						c0.255,0.154,0.568,0.44,0.853,0.525c0.147,0.058,0.281,0.141,0.434,0.187c0.155,0.041,0.309,0.081,0.459,0.121
						c0.304,0.059,0.611,0.084,0.896,0.082c0.285-0.03,0.565-0.032,0.803-0.129c0.122-0.036,0.24-0.071,0.352-0.104
						c0.104-0.053,0.203-0.103,0.295-0.149c0.19-0.092,0.355-0.177,0.463-0.286c0.242-0.192,0.381-0.303,0.381-0.303
						s-0.115,0.137-0.316,0.375c-0.094,0.131-0.246,0.245-0.43,0.372c-0.091,0.066-0.188,0.135-0.289,0.207
						c-0.116,0.049-0.238,0.1-0.365,0.153c-0.25,0.128-0.549,0.163-0.863,0.227c-0.313,0.033-0.659,0.043-1.002-0.013
						c-0.344-0.063-0.701-0.137-1.043-0.314c-0.383-0.141-0.598-0.352-0.943-0.566c-0.254-0.274-0.56-0.502-0.746-0.825
						c-0.232-0.291-0.375-0.626-0.504-0.951c-0.121-0.325-0.18-0.667-0.208-0.98c0-0.32-0.024-0.62,0.054-0.891
						c0.027-0.135,0.053-0.264,0.078-0.387c0.052-0.116,0.102-0.227,0.148-0.33c0.09-0.207,0.172-0.377,0.279-0.491
						C45.512,43.394,45.622,43.255,45.622,43.255z"/>
				</g>
				<g>
					<path style="fill-rule:evenodd;clip-rule:evenodd;fill:#FFFFFF;" d="M52.398,66.768h-6.684v-6.305c0,0,2.633,0.306,3.467,0.355
						c1.463,0.085,3.217,0.248,3.217,0.248V66.768z"/>
					<path style="fill-rule:evenodd;clip-rule:evenodd;fill:#FFFFFF;" d="M64.933,66.768h6.684v-6.305c0,0-2.633,0.306-3.467,0.355
						c-1.461,0.085-3.217,0.248-3.217,0.248V66.768z"/>
				</g>
			</g>
		</g>
	</g>
</g>
<g>
</g>
<g>
</g>
<g>
</g>
<g>
</g>
<g>
</g>
<g>
</g>
<g>
</g>
<g>
</g>
<g>
</g>
<g>
</g>
<g>
</g>
<g>
</g>
<g>
</g>
<g>
</g>
<g>
</g>
</svg>
