<?xml version="1.0" encoding="iso-8859-1"?>
<!-- Generator: Adobe Illustrator 19.0.0, SVG Export Plug-In . SVG Version: 6.00 Build 0)  -->
<svg version="1.1" id="Capa_1" xmlns="http://www.w3.org/2000/svg" xmlns:xlink="http://www.w3.org/1999/xlink" x="0px" y="0px"
	 viewBox="0 0 114.358 114.358" style="enable-background:new 0 0 114.358 114.358;" xml:space="preserve">
<g>
	<g>
		<g>
			<path style="fill-rule:evenodd;clip-rule:evenodd;fill:#AE8661;" d="M91.795,76.921c0,19.176,0,34.936-34.725,34.721h-0.635
				c-34.721,2.383-34.721-15.545-34.721-34.721v-0.566c0-19.176,15.545-34.721,34.721-34.721h0.635
				c19.178,0,34.725,15.545,34.725,34.721V76.921z"/>
			<path style="fill-rule:evenodd;clip-rule:evenodd;fill:#E2D1C5;" d="M83.922,77.081c0,19.079,5.645,34.788-25.744,34.544h-0.471
				c-30.141,2.563-25.74-15.465-25.74-34.544v-0.563c0-19.077,11.525-34.542,25.74-34.542h0.471
				c14.219,0,25.744,15.465,25.744,34.542V77.081z"/>
		</g>
		<g>
			<g>
				<path style="fill-rule:evenodd;clip-rule:evenodd;fill:#A37C5B;" d="M47.233,91.595c4.039,6.769,4.291,17.621-1.904,21.316
					c-6.195,3.698-16.496-1.162-20.535-7.93c-4.037-6.77-5.556-12.46,3.908-18.95C36.721,80.532,43.194,84.826,47.233,91.595z"/>
				<path style="fill-rule:evenodd;clip-rule:evenodd;fill:#8E694D;" d="M48.018,93.06c3.651,6.12,3.44,16.196-2.755,19.891
					c-6.196,3.697-16.032-0.384-19.684-6.505c-3.652-6.12-4.891-11.345,4.607-17.775C38.238,83.221,44.366,86.939,48.018,93.06z"/>
			</g>
			<g>
				<path style="fill-rule:evenodd;clip-rule:evenodd;fill:#A37C5B;" d="M68.119,91.595c-4.039,6.769-4.291,17.621,1.904,21.316
					c6.195,3.698,16.496-1.162,20.535-7.93c4.037-6.77,5.556-12.46-3.908-18.95C78.631,80.532,72.159,84.826,68.119,91.595z"/>
				<path style="fill-rule:evenodd;clip-rule:evenodd;fill:#8E694D;" d="M67.334,93.06c-3.651,6.12-3.44,16.196,2.755,19.891
					c6.196,3.697,16.032-0.384,19.684-6.505c3.652-6.12,4.891-11.345-4.607-17.775C77.115,83.221,70.987,86.939,67.334,93.06z"/>
			</g>
		</g>
	</g>
	<g>
		<g>
			<g>
				<circle style="fill-rule:evenodd;clip-rule:evenodd;fill:#B28B6B;" cx="91.489" cy="13.238" r="9.107"/>
				<ellipse style="fill-rule:evenodd;clip-rule:evenodd;fill:#8E694D;" cx="91.128" cy="13.238" rx="6.831" ry="6.458"/>
			</g>
			<g>
				<circle style="fill-rule:evenodd;clip-rule:evenodd;fill:#B28B6B;" cx="22.869" cy="13.238" r="9.106"/>
				<ellipse style="fill-rule:evenodd;clip-rule:evenodd;fill:#8E694D;" cx="22.508" cy="13.238" rx="6.831" ry="6.458"/>
			</g>
		</g>
		<path style="fill-rule:evenodd;clip-rule:evenodd;fill:#B28B6B;" d="M19.43,33.822C19.43,15.142,36.141,0,56.754,0
			C77.369,0,94.08,15.142,94.08,33.822s-9.248,33.822-37.326,33.822C26.778,67.644,19.43,52.501,19.43,33.822z"/>
		<g>
			<g>
				<g>
					<path style="fill-rule:evenodd;clip-rule:evenodd;fill:#8E694D;" d="M46.797,16.637c0,0-4.76-7.357-14.698,2.303
						c-9.23,8.972-10.384,20.389-7.448,24.889c2.02,3.097,16.896,8.39,26.346-0.638C60.446,34.164,46.797,16.637,46.797,16.637z"/>
					<circle style="fill-rule:evenodd;clip-rule:evenodd;fill:#7F5C44;" cx="39.194" cy="33.28" r="11.628"/>
					<g>
						<path style="fill-rule:evenodd;clip-rule:evenodd;fill:#434849;" d="M48.043,33.281c0-4.887-3.965-8.85-8.85-8.85
							c-4.887,0-8.85,3.962-8.85,8.85s3.963,8.848,8.85,8.848C44.078,42.129,48.043,38.168,48.043,33.281z"/>
						<path style="fill-rule:evenodd;clip-rule:evenodd;fill:#D0D1D2;" d="M39.816,31.572c0-1.707,1.38-3.097,3.093-3.097
							c1.712,0,3.09,1.39,3.09,3.097c0,1.71-1.378,3.098-3.09,3.098C41.196,34.669,39.816,33.282,39.816,31.572z"/>
						<circle style="fill-rule:evenodd;clip-rule:evenodd;fill:#D0D1D2;" cx="37.357" cy="34.947" r="1.011"/>
					</g>
				</g>
				<g>
					<path style="fill-rule:evenodd;clip-rule:evenodd;fill:#8E694D;" d="M66.916,16.637c0,0,4.697-7.291,14.698,2.303
						c9.874,9.472,9.513,20.722,6.536,24.722c-2.207,2.966-15.984,8.556-25.434-0.471C53.268,34.164,66.916,16.637,66.916,16.637z"
						/>
					<g>
						<circle style="fill-rule:evenodd;clip-rule:evenodd;fill:#7F5C44;" cx="74.097" cy="33.28" r="11.628"/>
					</g>
					<g>
						<circle style="fill-rule:evenodd;clip-rule:evenodd;fill:#434849;" cx="74.096" cy="33.281" r="8.85"/>
						<path style="fill-rule:evenodd;clip-rule:evenodd;fill:#D0D1D2;" d="M74.718,31.572c0-1.707,1.38-3.097,3.093-3.097
							c1.712,0,3.09,1.39,3.09,3.097c0,1.71-1.378,3.098-3.09,3.098C76.098,34.669,74.718,33.282,74.718,31.572z"/>
						<circle style="fill-rule:evenodd;clip-rule:evenodd;fill:#D0D1D2;" cx="72.259" cy="34.947" r="1.011"/>
					</g>
				</g>
			</g>
			<g>
				<path style="fill-rule:evenodd;clip-rule:evenodd;fill:#E2D1C5;" d="M59.385,43.606c0,1.826-1.133,3.306-2.528,3.306l0,0
					c-1.396,0-2.528-1.48-2.528-3.306V16.544c0-1.826,1.132-3.306,2.528-3.306l0,0c1.396,0,2.528,1.48,2.528,3.306V43.606z"/>
				<path style="fill-rule:evenodd;clip-rule:evenodd;fill:#E2D1C5;" d="M65.299,51.994c0,4.097-3.321,7.418-7.418,7.418h-2.254
					c-4.096,0-7.418-3.321-7.418-7.418l0,0c0-4.097,3.322-7.418,7.418-7.418h2.254C61.978,44.576,65.299,47.897,65.299,51.994
					L65.299,51.994z"/>
				<g>
					<path style="fill-rule:evenodd;clip-rule:evenodd;fill:#E49788;" d="M52.119,50.934c-0.714-0.837-0.397-1.521,0.702-1.521
						h7.657c1.1,0,1.416,0.685,0.702,1.522l-3.233,3.79c-0.714,0.837-1.882,0.837-2.596,0L52.119,50.934z"/>
				</g>
			</g>
		</g>
	</g>
</g>
<g>
</g>
<g>
</g>
<g>
</g>
<g>
</g>
<g>
</g>
<g>
</g>
<g>
</g>
<g>
</g>
<g>
</g>
<g>
</g>
<g>
</g>
<g>
</g>
<g>
</g>
<g>
</g>
<g>
</g>
</svg>
