<?xml version="1.0" encoding="iso-8859-1"?>
<!-- Generator: Adobe Illustrator 19.0.0, SVG Export Plug-In . SVG Version: 6.00 Build 0)  -->
<svg version="1.1" id="Capa_1" xmlns="http://www.w3.org/2000/svg" xmlns:xlink="http://www.w3.org/1999/xlink" x="0px" y="0px"
	 viewBox="0 0 136.454 136.454" style="enable-background:new 0 0 136.454 136.454;" xml:space="preserve">
<g>
	<g>
		<path style="fill:#469B9D;" d="M80.278,64.891c0,0,4.976,23.738,23.541,15.133c0,0-7.758-7.357-4.508-11.678
			c3.248-4.324,15.898-17.247,15.898-17.247s10.338,10.586,1.207,20.647c0,0,9.104-7.737,20.037,1.111
			c0,0-15.064,22.968-24.867,13.943c0,0-17.727,27.917-60.322,31.251"/>
		<g>
			<path style="fill:#2595CE;" d="M40.238,33.192c0,0-2.348-3.523-8.218-3.132c-5.87,0.392-2.348-8.608,4.109-7.435
				C42.587,23.799,39.456,28.886,40.238,33.192z"/>
			<path style="fill:#2595CE;" d="M40.887,22.52c0,0,0.1-2.652-3.025-4.609c-3.126-1.957,1.97-5.235,4.817-2.268
				C45.528,18.611,42.069,20.045,40.887,22.52z"/>
			<path style="fill:#2595CE;" d="M42.206,33.192c0,0,2.348-3.523,8.217-3.132c5.871,0.392,2.35-8.608-4.108-7.435
				C39.858,23.799,42.988,28.886,42.206,33.192z"/>
		</g>
		<circle style="fill:#469B9D;" cx="41.221" cy="78.069" r="41.221"/>
		<path style="fill:#D8D8D8;" d="M0.055,80.204c0,0,14.175,5.596,24.787-0.976c6.019-3.727,5.459,22.983,22.921,27.663
			c17.461,4.679,46.444-2.306,63.824-20.091c0,0-36.719,53.404-90.785,28.655C20.802,115.456,0.895,106.95,0.055,80.204z"/>
	</g>
	<path style="fill:#218588;" d="M35.253,77.822c-0.009,3.154,0.427,6.3,1.31,9.293c0.227,0.746,0.486,1.48,0.78,2.2
		c0.299,0.717,0.64,1.413,1.011,2.091l0.6,0.989l0.669,0.939l0.727,0.891c0.251,0.288,0.531,0.55,0.795,0.827
		c0.558,0.52,1.14,1.017,1.781,1.43c0.306,0.229,0.639,0.415,0.976,0.593c0.333,0.186,0.664,0.375,1.022,0.509
		c0.691,0.325,1.424,0.545,2.157,0.762c0.748,0.154,1.489,0.361,2.259,0.412l1.146,0.12l1.155,0.035
		c0.771,0.056,1.545-0.053,2.318-0.07c0.771-0.063,1.541-0.185,2.313-0.273l2.294-0.445l-0.257,0.169
		c0.193-0.274,0.372-0.67,0.524-1.029c0.14-0.377,0.269-0.761,0.358-1.158c0.117-0.39,0.147-0.803,0.227-1.203
		c0.032-0.409,0.087-0.817,0.1-1.229c-0.005-0.412,0.016-0.826-0.01-1.24l-0.107-1.241l-0.213-1.233
		c-0.058-0.414-0.198-0.813-0.292-1.22c-0.107-0.405-0.201-0.814-0.353-1.208l-0.412-1.191c-0.135-0.399-0.317-0.78-0.475-1.172
		c-0.165-0.388-0.319-0.782-0.495-1.166c-0.384-0.752-0.749-1.518-1.151-2.264l-1.273-2.207l1.443,2.106
		c0.449,0.723,0.864,1.469,1.299,2.205c0.201,0.376,0.382,0.765,0.573,1.146c0.182,0.388,0.397,0.761,0.55,1.162l0.468,1.199
		c0.169,0.396,0.282,0.812,0.407,1.224c0.113,0.415,0.271,0.819,0.348,1.245l0.268,1.27l0.161,1.293
		c0.044,0.433,0.039,0.87,0.061,1.307c0.003,0.437-0.037,0.875-0.059,1.313c-0.078,0.434-0.106,0.875-0.228,1.304
		c-0.092,0.433-0.228,0.857-0.379,1.277c-0.177,0.423-0.333,0.814-0.623,1.242l-0.091,0.135l-0.166,0.034l-2.346,0.485
		c-0.794,0.103-1.585,0.236-2.383,0.313c-0.803,0.029-1.601,0.148-2.409,0.103l-1.21-0.023c-0.402-0.026-0.804-0.088-1.206-0.132
		c-0.807-0.064-1.596-0.291-2.385-0.466c-0.778-0.239-1.554-0.485-2.29-0.841c-0.38-0.148-0.732-0.354-1.087-0.558
		c-0.358-0.195-0.711-0.398-1.036-0.647c-0.68-0.451-1.296-0.989-1.883-1.551c-0.277-0.297-0.57-0.58-0.833-0.889l-0.756-0.954
		l-0.666-1.014l-0.588-1.058c-0.36-0.721-0.687-1.454-0.967-2.205c-0.274-0.753-0.513-1.517-0.715-2.288
		c-0.196-0.774-0.364-1.553-0.493-2.338c-0.115-0.787-0.214-1.575-0.271-2.366C35.125,80.985,35.097,79.396,35.253,77.822z"/>
	<g>
		<circle style="fill-rule:evenodd;clip-rule:evenodd;fill:#434849;" cx="17.305" cy="64.244" r="3.832"/>
		<circle style="fill-rule:evenodd;clip-rule:evenodd;fill:#FFFFFF;" cx="18.752" cy="63.506" r="1.447"/>
	</g>
</g>
<g>
</g>
<g>
</g>
<g>
</g>
<g>
</g>
<g>
</g>
<g>
</g>
<g>
</g>
<g>
</g>
<g>
</g>
<g>
</g>
<g>
</g>
<g>
</g>
<g>
</g>
<g>
</g>
<g>
</g>
</svg>
