<?xml version="1.0" encoding="iso-8859-1"?>
<!-- Generator: Adobe Illustrator 19.0.0, SVG Export Plug-In . SVG Version: 6.00 Build 0)  -->
<svg version="1.1" id="Capa_1" xmlns="http://www.w3.org/2000/svg" xmlns:xlink="http://www.w3.org/1999/xlink" x="0px" y="0px"
	 viewBox="0 0 120.301 120.301" style="enable-background:new 0 0 120.301 120.301;" xml:space="preserve">
<g>
	<g>
		<g>
			<g>
				<g>
					<path style="fill:#3C3C3B;" d="M103.771,74.586c-1.093,1.397-4.252,5.477-2.815,11.726c0.634,2.754,1.352,4.397,1.907,5.635
						c0.578,1.236,2.143,3.635,3.492,4.799c1.099-1.399,1.462-1.586,2.606-3.438c0.709-1.156,1.35-2.964,1.223-4.244
						c-0.126-1.279-0.29-2.654-1.25-4.519C108.354,83.306,103.738,77.929,103.771,74.586z"/>
				</g>
			</g>
			<g>
				<g>
					<g>
						<path style="fill:#E2E2E2;" d="M107.772,95.889c0.178-0.715,0.303-1.472,0.37-2.272c0.131-1.581-1.043-2.969-2.624-3.101
							c-1.58-0.129-2.966,1.043-3.101,2.625c-0.783,9.36-16.933,9.07-17.098,9.065c-1.585-0.036-2.903,1.215-2.939,2.803
							c-0.039,1.586,1.216,2.902,2.802,2.941C86.021,107.969,104.705,108.265,107.772,95.889z"/>
					</g>
				</g>
			</g>
		</g>
		<path style="fill-rule:evenodd;clip-rule:evenodd;fill:#D8D8D8;" d="M87.865,81.547c0,21.273,0,38.756-38.519,38.518H48.64
			c-38.519,2.643-38.519-17.244-38.519-38.518v-0.628c0-21.272,17.246-38.518,38.519-38.518h0.705
			c21.272,0,38.519,17.245,38.519,38.518V81.547z"/>
		<g>
			<g>
				<g>
					<path style="fill:#3C3C3B;" d="M87.286,90.016c-1.002,0.539-2.425,1.141-3,1.399c-1.987,0.89-4.03,1.499-6.082,1.877
						c-4.108,0.762-8.205,0.68-12.156,0.14c3.973-0.34,7.882-1.172,11.39-2.685c1.753-0.746,3.395-1.688,4.847-2.778
						c0.624-0.475,4.432-3.489,5.58-4.593c-0.009,4.533-0.004,4.503-0.087,6.358L87.286,90.016z"/>
				</g>
			</g>
			<g>
				<g>
					<path style="fill:#3C3C3B;" d="M86.143,102.189c-1.034,0.476-2.49,0.989-3.08,1.213c-2.037,0.767-4.114,1.251-6.187,1.502
						c-4.146,0.511-8.23,0.18-12.141-0.6c3.986-0.098,7.94-0.69,11.533-1.986c1.795-0.639,3.395-1.64,5.006-2.479
						c3.596-1.875,4.948-3.738,6.162-4.769c-0.009,2.01-0.548,4.066-0.68,4.563C86.709,99.813,86.194,102.01,86.143,102.189z"/>
				</g>
			</g>
			<g>
				<g>
					<g>
						<path style="fill:#3C3C3B;" d="M10.679,90.016c1.002,0.539,2.425,1.141,3,1.399c1.987,0.89,4.03,1.499,6.083,1.877
							c4.108,0.762,8.205,0.68,12.156,0.14c-3.973-0.34-7.882-1.172-11.39-2.685c-1.753-0.746-3.395-1.688-4.847-2.778
							c-0.624-0.475-4.432-3.489-5.58-4.593c0.009,4.533,0.004,4.503,0.087,6.358L10.679,90.016z"/>
					</g>
				</g>
				<g>
					<g>
						<path style="fill:#3C3C3B;" d="M11.741,102.347c1.034,0.476,2.571,0.832,3.161,1.056c2.037,0.767,4.114,1.251,6.187,1.502
							c4.146,0.511,8.23,0.18,12.141-0.6c-3.986-0.098-7.94-0.69-11.533-1.986c-1.795-0.639-3.395-1.64-5.006-2.479
							c-3.596-1.875-4.948-3.738-6.162-4.769c0.171,2.204,0.354,3.4,0.767,5.506C11.332,100.76,11.69,102.167,11.741,102.347z"/>
					</g>
				</g>
			</g>
		</g>
	</g>
	<g>
		<g>
			<path style="fill-rule:evenodd;clip-rule:evenodd;fill:#4D4D4D;" d="M44.876,13.933c-3.946-6.143,0-12.941,0-12.941
				s0.844,1.26,1.272,1.16c0,0,0.876-1.444,1.733-1.728c0,0-0.144,0.922,0,1.346c0,0,1.502-1.416,3.004-1.77v1.77
				c0,0,0.965-0.105,1.573-1.063v1.346c0,0,0.966-0.495,1.287-1.204c0,0,4.075,7.225,0,13.084"/>
			<g>
				<path style="fill-rule:evenodd;clip-rule:evenodd;fill:#4D4D4D;" d="M38.58,19.541c0,0-3.579-11.938-16.79-16.434
					c0,0-5.57,12.004-0.406,24.507"/>
				<path style="fill-rule:evenodd;clip-rule:evenodd;fill:#F4A3A6;" d="M37.502,22.305c0,0-2.774-9.253-13.015-12.738
					c0,0-4.318,9.306-0.315,18.998"/>
			</g>
			<g>
				<path style="fill-rule:evenodd;clip-rule:evenodd;fill:#4D4D4D;" d="M58.708,17.529c0,0,4.953-11.436,18.6-14.355
					c0,0,4.125,12.574-2.468,24.388"/>
				<path style="fill-rule:evenodd;clip-rule:evenodd;fill:#F4A3A6;" d="M59.454,20.399c0,0,3.839-8.863,14.418-11.126
					c0,0,3.199,9.747-1.912,18.905"/>
			</g>
		</g>
		<g>
			<defs>
				<path id="XMLID_7_" d="M15.852,45.822c0-19.893,16.943-36.312,33.141-36.312c15.548,0,31.279,15.509,33.387,35.283
					c2.1,19.705-5.424,41.933-33.387,41.933C16.724,86.727,15.852,65.715,15.852,45.822z"/>
			</defs>
			<use xlink:href="#XMLID_7_"  style="overflow:visible;fill-rule:evenodd;clip-rule:evenodd;fill:#D8D8D8;"/>
			<clipPath id="XMLID_9_">
				<use xlink:href="#XMLID_7_"  style="overflow:visible;"/>
			</clipPath>
		</g>
		<g>
			<g>
				<g>
					<g>
						<circle style="fill-rule:evenodd;clip-rule:evenodd;fill:#434849;" cx="33.311" cy="45.259" r="3.965"/>
						<path style="fill-rule:evenodd;clip-rule:evenodd;fill:#FFFFFF;" d="M33.311,44.495c0-0.828,0.668-1.5,1.496-1.5
							c0.831,0,1.497,0.672,1.497,1.5c0,0.827-0.667,1.499-1.497,1.499C33.979,45.994,33.311,45.322,33.311,44.495z"/>
					</g>
					<g>
						<circle style="fill-rule:evenodd;clip-rule:evenodd;fill:#434849;" cx="63.419" cy="44.525" r="3.965"/>
						<path style="fill-rule:evenodd;clip-rule:evenodd;fill:#FFFFFF;" d="M63.42,43.76c0-0.826,0.667-1.499,1.496-1.499
							c0.83,0,1.497,0.673,1.497,1.499c0,0.828-0.667,1.5-1.497,1.5C64.087,45.26,63.42,44.588,63.42,43.76z"/>
					</g>
				</g>
				<g>
					<path style="fill-rule:evenodd;clip-rule:evenodd;fill:#4D4D4D;" d="M76.956,70.989c0,8.691-15.241,16.441-24.803,16.441
						h-8.361c-9.562,0-23.216-7.75-23.216-16.441l0,0c0-8.692,7.752-15.737,17.314-15.737h21.752
						C69.204,55.252,76.956,62.297,76.956,70.989L76.956,70.989z"/>
					<g>
						<circle style="fill-rule:evenodd;clip-rule:evenodd;fill:#333333;" cx="42.581" cy="62" r="2.981"/>
						<circle style="fill-rule:evenodd;clip-rule:evenodd;fill:#333333;" cx="54.219" cy="62" r="2.981"/>
					</g>
				</g>
			</g>
			<g>
				<path style="fill-rule:evenodd;clip-rule:evenodd;fill:#333333;" d="M17.796,34.074l8.913,4.491l-10-0.265
					C16.709,38.301,16.822,36.67,17.796,34.074z"/>
				<path style="fill-rule:evenodd;clip-rule:evenodd;fill:#333333;" d="M15.909,44.04l9.407,0.559l-9.463,3.891
					C15.852,48.489,15.751,46.052,15.909,44.04z"/>
				<path style="fill-rule:evenodd;clip-rule:evenodd;fill:#333333;" d="M15.949,53.205l11.439-1.145l-11.152,6.068
					C16.235,58.129,15.888,55.846,15.949,53.205z"/>
				<path style="fill-rule:evenodd;clip-rule:evenodd;fill:#333333;" d="M79.801,34.074l-9.253,4.491l10.595-0.363
					C81.143,38.202,80.775,36.67,79.801,34.074z"/>
				<path style="fill-rule:evenodd;clip-rule:evenodd;fill:#333333;" d="M82.256,43.76l-10.315,0.839l10.692,3.398
					C82.633,47.997,82.71,46.225,82.256,43.76z"/>
				<path style="fill-rule:evenodd;clip-rule:evenodd;fill:#333333;" d="M82.669,53.078l-11.571-1.018l11.153,5.854
					C82.251,57.915,82.73,55.719,82.669,53.078z"/>
				<g>
					<g>
						<path style="fill:#3C3C3B;" d="M68.429,17.547c-1.271-1.07-2.798-2.624-4.321-3.271L60.61,27.164L68.429,17.547z"/>
					</g>
				</g>
				<g>
					<g>
						<path style="fill:#3C3C3B;" d="M28.885,17.77l7.81,9.969l-3.383-13.304c-1.363,0.528-1.615,1.175-2.737,1.939
							C30.385,16.505,29.068,17.64,28.885,17.77z"/>
					</g>
				</g>
			</g>
		</g>
	</g>
</g>
<g>
</g>
<g>
</g>
<g>
</g>
<g>
</g>
<g>
</g>
<g>
</g>
<g>
</g>
<g>
</g>
<g>
</g>
<g>
</g>
<g>
</g>
<g>
</g>
<g>
</g>
<g>
</g>
<g>
</g>
</svg>
